<?xml version="1.0" standalone="no"?>
<!DOCTYPE svg PUBLIC "-//W3C//DTD SVG 20010904//EN"
 "http://www.w3.org/TR/2001/REC-SVG-20010904/DTD/svg10.dtd">
<svg version="1.0" xmlns="http://www.w3.org/2000/svg"
 width="2560.000000pt" height="1665.000000pt" viewBox="0 0 2560.000000 1665.000000"
 preserveAspectRatio="xMidYMid meet">

<g transform="translate(0.000000,1665.000000) scale(0.100000,-0.100000)"
fill="#000000" stroke="none">
<path d="M14485 16439 c-49 -4 -178 -15 -285 -23 -501 -41 -1008 -90 -1235
-121 -60 -8 -180 -24 -265 -35 -610 -81 -1287 -205 -1780 -327 -234 -57 -727
-199 -828 -238 -20 -8 -113 -42 -207 -75 -814 -292 -1419 -693 -1718 -1138
-78 -115 -206 -357 -195 -367 2 -3 47 0 99 5 87 9 345 24 834 50 253 13 791
13 1079 0 508 -23 659 -31 816 -45 91 -8 260 -22 375 -30 284 -21 542 -49 770
-85 209 -34 621 -117 757 -154 l87 -23 11 56 c32 173 119 480 164 583 l15 36
-71 7 c-156 16 -1190 -22 -1516 -55 -198 -20 -223 -18 -236 16 -24 63 6 82
155 99 323 37 1306 74 1585 61 l130 -7 58 118 c149 306 284 509 565 854 l24
29 -35 0 c-129 0 -738 -82 -1008 -136 -601 -119 -1095 -257 -1802 -503 -158
-55 -594 -226 -751 -295 -71 -31 -139 -56 -151 -56 -52 0 -76 76 -33 104 115
76 989 407 1462 554 417 130 1079 292 1415 346 411 67 582 88 856 107 l171 13
119 115 c208 202 431 392 607 515 63 45 77 58 60 55 -5 -1 -48 -5 -98 -10z"/>
<path d="M8875 13998 c-719 -38 -868 -50 -1355 -113 -962 -123 -1691 -325
-2460 -680 -245 -114 -780 -379 -985 -490 -384 -207 -567 -327 -887 -582 -504
-403 -845 -754 -1163 -1199 -145 -203 -214 -297 -272 -374 -27 -36 -98 -130
-158 -210 -273 -366 -484 -575 -915 -909 -386 -299 -459 -396 -491 -662 -13
-105 -3 -213 25 -280 41 -98 156 -195 306 -258 41 -18 82 -39 92 -48 25 -22
173 -51 298 -59 189 -11 391 28 530 103 128 69 119 66 150 53 33 -14 55 -59
46 -94 -11 -44 -165 -132 -297 -170 -184 -52 -433 -62 -625 -25 l-107 20 -23
-28 c-38 -47 -106 -171 -130 -239 -89 -244 85 -489 463 -653 49 -22 154 -62
234 -91 272 -97 334 -123 500 -206 352 -175 534 -288 1289 -795 451 -304 651
-423 990 -592 469 -234 895 -396 1633 -621 1559 -476 2836 -639 4027 -516 598
62 1214 215 1805 447 218 85 537 239 705 340 145 87 732 480 910 610 267 194
371 277 746 603 228 196 306 264 374 320 30 25 86 72 125 106 151 130 651 525
925 729 102 76 221 165 265 198 158 119 684 460 880 571 372 210 662 320 917
348 l107 12 50 90 c165 299 258 555 296 817 28 195 15 522 -24 599 -10 19 -37
94 -60 165 -149 457 -442 845 -1046 1386 -342 307 -533 458 -907 720 -537 376
-1123 689 -1801 963 -203 82 -735 260 -897 301 -58 14 -122 32 -143 41 -54 21
-282 77 -477 118 -149 31 -227 45 -515 91 -135 22 -424 53 -660 70 -115 9
-257 20 -315 25 -130 12 -545 36 -870 50 -279 12 -868 11 -1105 -2z m-2454
-1259 c884 -409 1474 -1035 1757 -1864 76 -222 131 -478 169 -780 27 -211 24
-741 -6 -1000 -36 -319 -68 -493 -140 -767 -66 -251 -169 -555 -241 -713 -10
-22 -46 -101 -80 -175 -216 -472 -546 -974 -948 -1443 -90 -104 -112 -120
-152 -105 -31 12 -40 25 -40 65 0 26 16 51 83 130 445 526 732 972 983 1530
152 337 324 924 364 1238 49 391 52 430 53 760 2 346 -5 443 -55 725 -177
1013 -766 1769 -1746 2241 -79 38 -148 69 -153 69 -22 0 -59 50 -59 79 0 30
38 71 66 71 8 0 73 -27 145 -61z m-1571 -1684 c239 -48 421 -146 596 -320 138
-138 236 -289 291 -450 110 -323 89 -676 -59 -968 -158 -315 -453 -551 -782
-626 -154 -36 -285 -45 -414 -31 -226 24 -398 85 -578 205 -217 144 -407 404
-473 645 -26 98 -51 266 -51 349 0 92 25 267 50 358 53 186 147 347 289 496
192 199 425 317 712 357 88 12 328 4 419 -15z m6975 -3080 c367 -120 641 -303
747 -499 130 -242 208 -559 208 -852 0 -172 -24 -323 -75 -479 -45 -137 -139
-337 -173 -368 -26 -24 -36 -24 -317 7 -1357 150 -2267 388 -2887 757 -349
207 -602 475 -709 752 -60 156 -80 251 -86 409 -7 165 1 199 48 223 35 19 53
19 89 0 37 -19 45 -43 41 -140 -5 -146 43 -353 114 -495 153 -304 491 -573
986 -785 593 -255 1441 -437 2564 -551 l50 -5 29 63 c32 71 86 213 86 228 0 6
-15 10 -32 10 -41 0 -163 15 -333 41 -737 114 -1489 368 -2215 747 l-205 107
0 40 c0 32 5 42 25 54 25 13 38 8 275 -112 430 -215 787 -365 1140 -477 457
-145 910 -240 1359 -283 29 -3 38 56 38 253 1 216 -33 403 -109 601 l-28 73
-255 1 c-312 2 -524 24 -835 87 -207 42 -658 167 -702 194 -23 14 -31 57 -15
80 23 34 45 32 212 -17 365 -109 686 -177 965 -204 155 -15 555 -21 555 -7 -1
11 -60 72 -120 123 -101 84 -265 167 -473 240 -124 43 -147 62 -147 119 0 30
6 44 31 64 38 32 57 32 154 1z"/>
<path d="M4454 10740 c-100 -11 -175 -35 -274 -86 -100 -51 -152 -92 -247
-195 -87 -94 -142 -186 -185 -309 -32 -94 -33 -97 -33 -280 0 -167 2 -192 24
-260 132 -424 541 -690 967 -630 296 42 530 212 678 492 59 113 85 212 92 350
14 294 -104 549 -345 741 -82 65 -221 136 -316 162 -70 19 -260 27 -361 15z
m-69 -402 c133 -68 219 -240 186 -370 -39 -152 -135 -247 -283 -277 -113 -24
-230 19 -319 117 -63 68 -83 133 -77 243 8 136 89 250 211 299 76 30 212 24
282 -12z"/>
<path d="M24565 12839 c-632 -31 -1207 -120 -1890 -294 -506 -129 -1051 -312
-1560 -525 -432 -180 -876 -399 -1410 -695 -409 -227 -996 -593 -1333 -833
-75 -54 -175 -124 -222 -157 -105 -73 -317 -232 -323 -242 -3 -5 1 -55 9 -113
33 -251 10 -556 -61 -805 -61 -212 -121 -352 -256 -597 l-59 -107 0 -278 c0
-385 16 -632 61 -963 72 -525 196 -1041 388 -1610 249 -741 538 -1386 1009
-2250 146 -268 401 -691 659 -1095 121 -190 442 -660 628 -920 339 -476 833
-1125 855 -1125 14 0 115 87 211 181 91 89 224 262 304 394 65 109 125 213
125 219 0 2 22 51 48 108 105 224 189 459 266 738 91 335 174 761 216 1110 5
47 19 159 30 250 46 384 79 975 87 1585 8 695 -24 1855 -67 2391 -7 83 -6 131
1 151 5 17 36 52 67 79 89 76 440 402 627 582 194 187 453 454 665 687 538
590 1019 1264 1294 1813 292 584 439 1086 476 1632 12 186 -2 473 -32 631
l-10 56 -112 6 c-142 9 -472 6 -691 -4z m-745 -1581 c13 -25 13 -31 0 -55 -15
-27 -22 -29 -145 -46 -181 -25 -488 -73 -625 -99 -191 -35 -861 -167 -925
-181 -332 -77 -442 -103 -575 -138 -85 -22 -234 -61 -330 -86 -256 -65 -774
-214 -1010 -288 -421 -134 -963 -316 -1218 -409 -261 -95 -307 -107 -330 -84
-21 21 -15 76 11 92 39 25 481 184 877 316 1101 366 2117 639 3035 815 160 31
310 60 335 65 74 16 515 87 650 105 69 9 132 18 140 20 8 2 33 2 55 2 32 -2
42 -7 55 -29z m-1385 -1822 c182 -9 397 -21 478 -27 131 -11 150 -15 163 -33
19 -27 18 -49 -4 -76 l-18 -22 -249 16 c-393 26 -826 36 -1555 36 -838 0
-1282 -14 -2252 -72 -197 -11 -208 -11 -228 7 -11 10 -20 29 -20 42 0 28 33
63 59 63 11 0 129 6 263 14 540 32 938 50 1453 66 381 12 1533 3 1910 -14z
m-3794 -833 c250 -255 638 -629 825 -793 22 -19 78 -69 124 -110 724 -644
1453 -1149 2185 -1515 216 -108 220 -111 223 -143 7 -67 -37 -79 -133 -36
-124 54 -368 181 -545 282 -426 243 -718 440 -1220 826 -130 99 -410 332 -520
430 -25 23 -79 70 -120 106 -209 182 -465 423 -732 690 -263 261 -298 300
-298 328 0 38 23 62 59 62 22 0 52 -25 152 -127z m-668 -475 c9 -7 42 -67 72
-133 262 -562 650 -1330 935 -1850 300 -548 570 -1013 933 -1605 344 -562 982
-1517 1425 -2134 132 -183 143 -212 97 -242 -49 -32 -62 -19 -252 248 -1227
1726 -2226 3400 -3046 5103 -235 489 -257 537 -257 567 0 47 55 74 93 46z"/>
</g>
</svg>
