<?xml version="1.0" standalone="no"?>
<!DOCTYPE svg PUBLIC "-//W3C//DTD SVG 20010904//EN"
 "http://www.w3.org/TR/2001/REC-SVG-20010904/DTD/svg10.dtd">
<svg version="1.0" xmlns="http://www.w3.org/2000/svg"
 width="100.000000pt" height="100.000000pt" viewBox="0 0 100.000000 100.000000"
 preserveAspectRatio="xMidYMid meet">

<g transform="translate(0.000000,100.000000) scale(0.100000,-0.100000)"
fill="#000000" stroke="none">
<path d="M131 906 c-49 -27 -50 -37 -51 -404 0 -372 2 -386 55 -410 41 -19
697 -17 734 2 49 26 51 41 51 406 0 365 -2 380 -51 406 -39 20 -702 20 -738 0z
m729 -46 c19 -19 20 -33 20 -360 0 -327 -1 -341 -20 -360 -19 -19 -33 -20
-360 -20 -327 0 -341 1 -360 20 -19 19 -20 33 -20 360 0 327 1 341 20 360 19
19 33 20 360 20 327 0 341 -1 360 -20z"/>
<path d="M220 710 l0 -130 280 0 280 0 0 130 0 130 -280 0 -280 0 0 -130z
m520 0 l0 -90 -240 0 -240 0 0 90 0 90 240 0 240 0 0 -90z"/>
<path d="M344 767 c-3 -8 -4 -39 -2 -68 l3 -54 45 0 45 0 0 65 0 65 -43 3
c-29 2 -44 -1 -48 -11z m56 -57 c0 -16 -4 -30 -10 -30 -5 0 -10 14 -10 30 0
17 5 30 10 30 6 0 10 -13 10 -30z"/>
<path d="M524 767 c-3 -8 -4 -39 -2 -68 l3 -54 45 0 45 0 0 65 0 65 -43 3
c-29 2 -44 -1 -48 -11z m56 -57 c0 -16 -4 -30 -10 -30 -5 0 -10 14 -10 30 0
17 5 30 10 30 6 0 10 -13 10 -30z"/>
<path d="M660 710 c0 -63 2 -70 20 -70 18 0 20 7 20 70 0 63 -2 70 -20 70 -18
0 -20 -7 -20 -70z"/>
<path d="M460 660 c0 -13 7 -20 20 -20 13 0 20 7 20 20 0 13 -7 20 -20 20 -13
0 -20 -7 -20 -20z"/>
<path d="M230 482 c0 -11 14 -38 30 -60 17 -23 30 -53 30 -67 0 -63 70 -145
128 -150 15 -1 38 -6 52 -12 58 -25 191 22 240 84 46 59 67 162 38 191 -16 16
-43 15 -58 -3 -7 -8 -26 -15 -42 -15 -16 0 -45 -7 -65 -15 -51 -22 -94 -17
-171 18 -22 11 -29 9 -94 -18 -13 -5 -23 2 -39 29 -22 38 -49 48 -49 18z m479
-125 c-25 -65 -86 -111 -165 -126 -48 -9 -50 -9 -85 25 -34 33 -53 37 -42 8
14 -37 -50 4 -72 47 -19 35 -16 35 38 7 59 -32 175 -32 234 0 48 25 60 39 45
54 -7 7 -27 2 -63 -16 -32 -15 -70 -26 -94 -26 -52 0 -128 25 -150 50 -16 17
-15 19 4 30 17 9 21 8 21 -5 0 -11 11 -15 43 -15 23 1 63 -2 88 -6 33 -4 55
-1 77 10 17 9 46 16 64 16 18 0 40 5 48 10 21 13 26 -22 9 -63z"/>
</g>
</svg>
